<svg xmlns="http://www.w3.org/2000/svg" version="1.1" xmlns:xlink="http://www.w3.org/1999/xlink" xmlns:svgjs="http://svgjs.dev/svgjs" width="2000" height="1500" viewBox="0 0 2000 1500"><rect width="2000" height="1500" fill="#ffffff"></rect><g transform="matrix(0.75,0,0,0.75,249.090909090909,559.9891929377791)"><svg viewBox="0 0 396 100" data-background-color="#ffffff" preserveAspectRatio="xMidYMid meet" height="505" width="2000" xmlns="http://www.w3.org/2000/svg" xmlns:xlink="http://www.w3.org/1999/xlink"><g id="tight-bounds" transform="matrix(1,0,0,1,0.2400000000000091,0.16786985141146715)"><svg viewBox="0 0 395.52 99.6642602971771" height="99.6642602971771" width="395.52"><g><svg viewBox="0 0 489.35027934094 123.30788232385662" height="99.6642602971771" width="395.52"><g transform="matrix(1,0,0,1,93.83027934094005,17.04182744128554)"><svg viewBox="0 0 395.52 89.22422744128554" height="89.22422744128554" width="395.52"><g id="textblocktransform"><svg viewBox="0 0 395.52 89.22422744128554" height="89.22422744128554" width="395.52" id="textblock"><g><svg viewBox="0 0 395.52 89.22422744128554" height="89.22422744128554" width="395.52"><g transform="matrix(1,0,0,1,0,0)"><svg width="395.52" viewBox="2.55 -33.9 159.78 36.5" height="89.22422744128554" data-palette-color="#b60a3a"><g class="wordmark-text-0" data-fill-palette-color="primary" id="text-0"><path d="M4.15 0.6Q3.6 0.5 3.1 0.18 2.6-0.15 2.55-0.6L2.55-0.6 2.8-1Q3-1 3.7-0.85L3.7-0.85Q4.25-0.65 4.6-0.65L4.6-0.65Q5.7-0.65 6.55-1.53 7.4-2.4 7.85-3.8L7.85-3.8Q8.55-6.4 8.55-8.7L8.55-8.7Q8.55-12.15 6.45-16.1L6.45-16.1Q5.15-18.4 4.45-19.75 3.75-21.1 3.2-22.85L3.2-22.85Q2.55-24.9 2.55-26.8L2.55-26.8Q2.55-28.6 3.45-31.05L3.45-31.05Q3.9-32.2 4.73-32.93 5.55-33.65 6.5-33.65L6.5-33.65Q7.15-33.65 7.78-33.2 8.4-32.75 8.4-32.25L8.4-32.25Q8.4-31.85 7.75-31.85L7.75-31.85Q7.55-31.85 7.25-32L7.25-32Q6.95-32.15 6.7-32.15L6.7-32.15Q5.95-32.15 5.35-31.55 4.75-30.95 4.45-30L4.45-30Q3.85-28.15 3.85-26.6L3.85-26.6Q3.85-25.65 4.1-24.65L4.1-24.65Q4.15-24.35 4.2-24.15 4.25-23.95 4.25-23.85L4.25-23.85 4.55-22.85 4.8-21.95 5.2-21.05Q5.35-20.7 5.53-20.43 5.7-20.15 5.85-19.9L5.85-19.9 6.45-18.85Q6.65-18.55 7.3-17.43 7.95-16.3 8.5-15.05L8.5-15.05Q9-14 9.25-13.08 9.5-12.15 9.7-10.85L9.7-10.85Q9.85-9.6 9.85-8.1L9.85-8.1Q9.85-5.7 9.2-3.6L9.2-3.6Q8.3-1.1 6.6-0.1L6.6-0.1Q5.65 0.5 4.4 0.5L4.4 0.5 4.15 0.6ZM8.1-32L8.15-32Q8.15-32.05 8.1-32.05L8.1-32.05 8.1-32ZM21.15 0.75Q20.35 0.75 19.42 0.23 18.5-0.3 17.9-1L17.9-1Q17.2-1.9 16.8-6.05 16.4-10.2 16.3-15.55L16.3-15.55Q16.3-16.75 16.25-17.35L16.25-17.35Q16.15-29.9 15.85-32.2L15.85-32.2 16.15-32.9Q17.3-32.75 17.3-30.15L17.3-30.15 17.45-16.9Q17.45-15.5 17.7-11.6L17.7-11.6Q18-8.1 18-6.3L18-6.3Q18-0.6 21.75-0.6L21.75-0.6Q24.05-0.6 24.7-11.1L24.7-11.1 24.75-12.1Q25.1-25.85 25.1-32.45L25.1-32.45 25.05-32.9Q25-33.1 25-33.35L25-33.35Q25-33.9 25.85-33.9L25.85-33.9Q26.45-33.9 26.6-33.6L26.6-33.6Q26.7-33.1 26.7-31.85L26.7-31.85Q26.7-28.05 26.4-26.75L26.4-26.75 26.45-26.45Q26.45-25.8 26.3-24.45L26.3-24.45 26.2-22.45 26.2-21.95Q26.25-21.75 26.25-21.45L26.25-21.45Q26.15-20.25 26.15-19.15L26.15-19.15Q26.1-18.8 26.1-18.05L26.1-18.05Q26-13.3 25.9-9.8L25.9-9.8Q25.75-5.45 24.7-2.45L24.7-2.45Q23.6 0.75 21.15 0.75L21.15 0.75ZM35.65 1L34.9 0.6Q34.34-2.55 34.34-6.6L34.34-6.6Q34.34-8.2 34.5-11.25L34.5-11.25 34.59-15.9Q34.25-16.6 34.25-17.05L34.25-17.05Q34.75-17.85 34.75-21.65L34.75-21.65Q34.75-30.75 34.5-31.35L34.5-31.35Q34.95-32.6 35.2-32.6L35.2-32.6 37.4-32.6Q37.95-32.6 38.97-32.08 40-31.55 40.7-30.95L40.7-30.95Q41.95-29.8 41.95-25.05L41.95-25.05Q41.95-22.5 41.8-21.15L41.8-21.15Q41.7-20.2 41.47-19.65 41.25-19.1 40.8-18.4L40.8-18.4Q40.05-17.25 38.25-16.4L38.25-16.4Q37.5-16 36.15-15.6L36.15-15.6 36.15-9.65Q36.15-8.4 36.4-4.75L36.4-4.75 36.5-3.15 36.59 0.1Q36.59 1 35.65 1L35.65 1ZM36.5-17.3Q37.95-17.3 38.95-18.65L38.95-18.65Q39.3-19.15 39.59-20 39.9-20.85 40-21.65L40-21.65Q40.3-23.1 40.3-25L40.3-25 40.3-26.35Q40.3-27.05 40.25-27.7 40.2-28.35 40.05-28.95L40.05-28.95Q39.84-29.6 39.52-30.03 39.2-30.45 38.65-30.75L38.65-30.75Q38.05-31.05 37.2-31.05L37.2-31.05Q36.59-31.05 36.34-30.75 36.09-30.45 36.09-29.7L36.09-29.7Q36.09-28.5 36.25-26.1L36.25-26.1 36.34-22.5Q36.34-21.2 36.25-20.15L36.25-20.15 36.15-17.8 36.5-17.3ZM48.29 0.65Q47.39 0.65 47.29-0.4L47.29-0.4 47.29-1.05Q47.34-1.3 47.34-1.65L47.34-1.65 47.14-1.85Q47.54-2.9 47.54-3.9L47.54-3.9Q47.54-5.05 47.39-7.2L47.39-7.2 47.29-10.5Q47.29-13 47.44-18L47.44-18Q47.64-22.45 47.64-25.55L47.64-25.55 47.54-28.55Q47.44-29.9 47.44-31.55L47.44-31.55Q47.44-32.3 47.79-32.63 48.14-32.95 48.89-32.95L48.89-32.95Q49.39-32.95 49.69-32.65L49.69-32.65Q49.79-32.6 51.14-32.45L51.14-32.45Q52.39-32.3 53.29-32L53.29-32Q54.24-31.7 54.24-31.25L54.24-31.25Q54.24-30.75 53.29-30.25L53.29-30.25Q50.44-31.2 49.24-31.2L49.24-31.2 48.99-30.9Q49.04-30.45 49.04-28.75L49.04-28.75Q49.04-26.6 48.94-24.9L48.94-24.9Q48.89-23.15 48.89-21L48.89-21Q48.89-19.6 49.59-19.6L49.59-19.6 50.39-19.65Q50.79-19.7 51.24-19.7L51.24-19.7Q53.19-19.7 53.19-18.8L53.19-18.8Q53.19-18.25 52.94-17.88 52.69-17.5 52.19-17.5L52.19-17.5Q51.44-17.5 51.04-17.9L51.04-17.9 49.44-18.15 49.19-18.15 48.94-17.9 48.94-17.75Q49.04-16.9 49.04-13.8L49.04-13.8Q49.04-11.85 48.99-10.25L48.99-10.25 48.94-6.7Q48.94-4.75 49.09-2.7L49.09-2.7Q49.14-1.55 49.59-1.18 50.04-0.8 51.24-0.8L51.24-0.8 52.14-0.85Q52.59-0.9 53.14-0.9L53.14-0.9Q54.59-0.9 54.59-0.25L54.59-0.25Q54.59 0.65 52.39 0.65L52.39 0.65 48.29 0.65ZM68.49 0.85L67.79 0.6Q67.19-0.05 66.49-2.85 65.79-5.65 65.19-9.15L65.19-9.15Q64.79-12 64.04-14.8L64.04-14.8Q63.44-17.3 62.89-17.3L62.89-17.3 62.74-17.3Q61.64-17.3 61.64-16.6L61.64-16.6Q61.64-13 62.04-5.65L62.04-5.65Q62.24-1.15 62.49-0.4L62.49-0.4 62.09 0.45 61.39 0.45 60.99 0.05Q60.19-23.05 60.19-31.45L60.19-31.45Q60.19-32 60.27-32.35 60.34-32.7 60.59-33L60.59-33Q60.79-33.35 61.29-33.35L61.29-33.35Q63.84-33.35 65.39-32.1 66.94-30.85 66.94-28.5L66.94-28.5 66.94-24.85Q66.94-23.9 66.32-22.3 65.69-20.7 64.94-19.35L64.94-19.35 64.29-18.1Q64.84-15.55 66.47-8.93 68.09-2.3 68.24-1.9L68.24-1.9Q68.29-1.85 68.37-1.65 68.44-1.45 68.69-1.05L68.69-1.05Q69.04-0.35 69.04 0.15L69.04 0.15Q69.04 0.85 68.49 0.85L68.49 0.85ZM61.89-18.55Q62.84-18.55 63.59-19.5 64.34-20.45 64.79-21.95L64.79-21.95Q65.59-25 65.59-26.8L65.59-26.8Q65.59-27.95 65.47-28.7 65.34-29.45 65.04-30.3L65.04-30.3Q64.44-32.05 62.19-32.05L62.19-32.05Q61.94-32.05 61.79-31.63 61.64-31.2 61.64-30.75L61.64-30.75Q61.64-27.4 61.74-24.7L61.74-24.7Q61.79-22 61.79-18.65L61.79-18.65 61.89-18.55Z" fill="#b60a3a" data-fill-palette-color="primary"></path><path d="M100.94 2.6Q99.94 2.6 99.94-0.6L99.94-0.6 99.94-3.9Q99.94-11.1 99.64-15.15L99.64-15.15 99.49-17Q99.29-18.25 99.29-19.2L99.29-19.2Q99.29-20.9 99.39-22.3L99.39-22.3 99.49-25.4Q99.49-26.95 99.29-27.75L99.29-27.75Q98.29-27.05 93.24-6.7L93.24-6.7 93.19-5.95Q93.04-4.7 92.79-3.95L92.79-3.95Q92.64-3.4 92.36-3.1 92.09-2.8 91.74-2.8L91.74-2.8Q90.94-2.8 90.59-3.2 90.24-3.6 90.24-4.45L90.24-4.45Q90.24-5.8 88.96-11.45 87.69-17.1 86.21-22.3 84.74-27.5 84.19-28.05L84.19-28.05Q84.14-26.3 83.79-19.8L83.79-19.8Q83.09-8.3 83.09-1.7L83.09-1.7 83.14 0.3Q82.94 0.95 82.09 0.95L82.09 0.95Q81.94 0.95 81.59 0.68 81.24 0.4 81.24 0.25L81.24 0.25Q81.24-4.25 82.04-15.55L82.04-15.55Q82.79-26.05 82.79-31.3L82.79-31.3Q82.79-31.55 82.69-31.8L82.69-31.8Q82.54-32.1 82.54-32.25L82.54-32.25Q82.54-33 83.84-33L83.84-33Q84.69-33 84.84-32.25L84.84-32.25Q85.04-31.25 85.04-30.75L85.04-30.75 85.09-30.15Q85.34-28.85 86.54-26.15L86.54-26.15Q87.49-24 87.99-22.4L87.99-22.4Q88.29-21.2 88.54-20.45L88.54-20.45Q89.34-17.55 89.59-16.15L89.59-16.15 90.24-14.85Q90.39-14.1 90.84-12.4L90.84-12.4Q91.29-10.5 91.49-9.3 91.69-8.1 91.69-7L91.69-7Q92.24-7.85 94.81-17.23 97.39-26.6 97.84-29.2L97.84-29.2Q97.89-29.3 97.91-29.48 97.94-29.65 97.99-29.95L97.99-29.95Q98.09-30.6 98.44-31.9L98.44-31.9Q98.84-32.9 99.64-32.9L99.64-32.9Q99.99-32.9 100.44-32.6 100.89-32.3 100.89-32L100.89-32Q100.89-11.15 101.54-9.95L101.54-9.95 101.54-7.35Q101.49-6.2 101.49-4.7L101.49-4.7Q101.49-1.5 101.84 0.1L101.84 0.1Q101.89 0.15 101.91 0.25 101.94 0.35 101.99 0.5L101.99 0.5Q102.04 0.7 102.04 0.95L102.04 0.95Q102.04 1.5 101.71 2.05 101.39 2.6 100.94 2.6L100.94 2.6ZM99.29-27.95L99.29-28.05 99.24-28.05 99.14-28 99.29-27.95ZM119.39 0.45Q118.64 0.45 118.44 0.28 118.24 0.1 118.14-0.65L118.14-0.65Q117.69-4.3 117.59-5.2L117.59-5.2 117.34-7.2Q116.24-7.45 114.84-7.45L114.84-7.45 113.04-7.55Q111.84-7.7 111.29-7.7L111.29-7.7Q110.99-7.7 110.94-7.45L110.94-7.45Q110.94-7.3 110.89-7.3L110.89-7.3 110.79-6.3Q110.74-5.4 110.24-2.7L110.24-2.7Q109.99-1.35 109.64-0.6L109.64-0.6Q109.24 0.25 108.89 0.25L108.89 0.25Q108.59 0.25 108.24-0.03 107.89-0.3 107.89-0.6L107.89-0.6 107.94-0.75 107.99-0.9Q108.89-4.45 109.49-7.95L109.49-7.95 110.09-11.05 110.69-14.85Q110.69-14.85 111.24-18.15L111.24-18.15Q111.49-19.5 112.14-22.5L112.14-22.5Q112.84-25.9 112.99-27.15L112.99-27.15Q113.04-27.3 113.19-29L113.19-29Q113.39-30.9 113.54-31.8L113.54-31.8Q113.69-33.1 113.84-33.3L113.84-33.3 114.19-33.3Q114.34-33.25 114.54-33.25L114.54-33.25Q115.14-33.25 115.44-33.55L115.44-33.55Q115.79-33.55 116.06-33.33 116.34-33.1 116.34-32.8L116.34-32.8Q116.34-30.4 116.69-27.3L116.69-27.3Q116.89-25.7 116.99-24.65L116.99-24.65Q117.54-18.2 119.79-0.45L119.79-0.45 119.79-0.3Q119.79 0.2 119.39 0.45L119.39 0.45ZM116.59-8.55L117.09-8.55Q116.59-15.75 115.19-29.8L115.19-29.8 112.49-16.45Q111.34-10.7 111.34-9.2L111.34-9.2Q111.34-8.95 113.24-8.75 115.14-8.55 116.59-8.55L116.59-8.55ZM133.53 0.85L132.83 0.6Q132.23-0.05 131.53-2.85 130.83-5.65 130.23-9.15L130.23-9.15Q129.83-12 129.08-14.8L129.08-14.8Q128.48-17.3 127.93-17.3L127.93-17.3 127.78-17.3Q126.68-17.3 126.68-16.6L126.68-16.6Q126.68-13 127.08-5.65L127.08-5.65Q127.28-1.15 127.53-0.4L127.53-0.4 127.13 0.45 126.43 0.45 126.03 0.05Q125.23-23.05 125.23-31.45L125.23-31.45Q125.23-32 125.31-32.35 125.38-32.7 125.63-33L125.63-33Q125.83-33.35 126.33-33.35L126.33-33.35Q128.88-33.35 130.43-32.1 131.98-30.85 131.98-28.5L131.98-28.5 131.98-24.85Q131.98-23.9 131.36-22.3 130.73-20.7 129.98-19.35L129.98-19.35 129.33-18.1Q129.88-15.55 131.51-8.93 133.13-2.3 133.28-1.9L133.28-1.9Q133.33-1.85 133.41-1.65 133.48-1.45 133.73-1.05L133.73-1.05Q134.08-0.35 134.08 0.15L134.08 0.15Q134.08 0.85 133.53 0.85L133.53 0.85ZM126.93-18.55Q127.88-18.55 128.63-19.5 129.38-20.45 129.83-21.95L129.83-21.95Q130.63-25 130.63-26.8L130.63-26.8Q130.63-27.95 130.51-28.7 130.38-29.45 130.08-30.3L130.08-30.3Q129.48-32.05 127.23-32.05L127.23-32.05Q126.98-32.05 126.83-31.63 126.68-31.2 126.68-30.75L126.68-30.75Q126.68-27.4 126.78-24.7L126.78-24.7Q126.83-22 126.83-18.65L126.83-18.65 126.93-18.55ZM142.38 0Q141.23 0 141.03-0.5L141.03-0.5Q140.78-0.5 140.63-0.45L140.63-0.45 140.23-0.45Q139.13-0.45 138.83-0.95L138.83-0.95Q138.83-1.3 139.23-1.55L139.23-1.55 139.48-1.8 140.93-1.8 141.13-2 141.23-2.45 141.28-3.05Q141.28-6.1 141.13-8.5L141.13-8.5 141.03-10.35 140.93-14Q140.93-15.95 141.08-19.85L141.08-19.85 141.18-25.65Q141.18-29.45 140.93-31.45L140.93-31.45Q140.48-31.6 139.43-31.6L139.43-31.6 138.88-31.55Q138.58-31.5 138.23-31.5L138.23-31.5Q137.28-31.5 137.28-32.35L137.28-32.35Q137.28-32.55 137.73-32.75 138.18-32.95 138.48-32.95L138.48-32.95Q140.38-32.95 142.28-32.75L142.28-32.75Q143.43-32.7 144.58-32.3L144.58-32.3Q145.48-32 145.48-31.45L145.48-31.45Q145.48-31.35 145.33-31.05L145.33-31.05 144.18-30.95Q143.83-31.25 142.73-31.25L142.73-31.25 142.48-31.1Q142.63-30.65 142.63-28.45L142.63-28.45Q142.63-25.15 142.58-22.5L142.58-22.5 142.48-16.55Q142.48-14.3 142.68-11.1L142.68-11.1Q142.83-7.45 142.83-5.6L142.83-5.6 142.83-4.95Q142.78-4.6 142.78-4.05L142.78-4.05Q142.78-2.9 142.93-2.65L142.93-2.65 142.88-2.55Q142.88-2.05 143.98-2.05L143.98-2.05Q144.43-2.05 144.73-2.1L144.73-2.1 145.48-2.1Q146.93-2.1 146.93-1.4L146.93-1.4Q146.93-0.95 146.63-0.68 146.33-0.4 145.83-0.4L145.83-0.4Q145.38-0.4 145.03-0.5L145.03-0.5Q144.63-0.55 144.18-0.55L144.18-0.55Q143.88-0.55 143.28-0.3L143.28-0.3Q142.68 0 142.38 0L142.38 0ZM156.73 0.95Q150.88 0.95 150.88-17.45L150.88-17.45 150.88-19.2Q150.88-33.15 154.48-33.15L154.48-33.15Q154.73-33.15 155.18-33L155.18-33Q156.78-32.45 158.33-32.3L158.33-32.3Q159.28-32.1 160.23-30.35L160.23-30.35Q161.28-28.55 161.8-25.6 162.33-22.65 162.33-19.55L162.33-19.55 162.23-19.3Q162.23-17.65 162.28-16.35L162.28-16.35 162.33-13.35Q162.33-10.8 162.13-8.75L162.13-8.75Q161.83-5.65 161.13-3.4L161.13-3.4Q160.68-2.05 160.1-1.15 159.53-0.25 158.68 0.35L158.68 0.35Q157.88 0.95 156.73 0.95L156.73 0.95ZM156.53-0.5Q158.48-0.5 159.43-3.25L159.43-3.25Q160.38-6.05 160.58-8.95L160.58-8.95Q160.78-11.95 160.78-13.75L160.78-13.75Q160.78-15.75 160.48-19.65L160.48-19.65Q160.23-24 160.23-25.55L160.23-25.55 160.03-25.95 160.13-26.2Q160.13-28.4 158.9-30 157.68-31.6 155.93-31.6L155.93-31.6Q153.63-31.6 153.18-29.4L153.18-29.4Q153.08-28.65 152.98-27.25L152.98-27.25Q152.98-23.55 152.68-22.2L152.68-22.2Q152.68-21.45 152.53-19.85L152.53-19.85 152.43-17.5Q152.43-16.4 152.48-15.55L152.48-15.55 152.53-13.55Q152.53-11.2 152.93-8.15L152.93-8.15Q153.23-5.9 153.63-4.35 154.03-2.8 154.78-1.7L154.78-1.7Q155.53-0.5 156.53-0.5L156.53-0.5Z" fill="#dbb8d0" data-fill-palette-color="accent"></path></g></svg></g></svg></g></svg></g></svg></g><g><svg viewBox="0 0 72.76658062351113 123.30788232385662" height="123.30788232385662" width="72.76658062351113"><g><svg xmlns="http://www.w3.org/2000/svg" xmlns:xlink="http://www.w3.org/1999/xlink" version="1.1" x="0" y="0" viewBox="22.852645217694363 4 54.294680037267 92.00600000000001" enable-background="new 0 0 100 100" xml:space="preserve" height="123.30788232385662" width="72.76658062351113" class="icon-icon-0" data-fill-palette-color="accent" id="icon-0"><path d="M77.128 39.761c-0.03-0.676-0.622-1.491-1.76-2.426 0.143-3.018 0.358-17.537-7.911-26.454C63.224 6.315 57.457 4 50.318 4h-0.147c-7.546 0-13.562 2.413-17.879 7.172-8.074 8.9-7.633 23.032-7.428 26.13-1.288 0.934-1.958 1.758-1.993 2.453-0.158 3.111 0.75 18.683 0.965 21.086 0.062 0.646 0.583 0.971 1.157 1.146 0.236 1.896 0.903 7.022 1.455 8.975 0.907 3.221 7.453 18.301 12.562 22.856 2.029 1.806 6.56 2.188 10.003 2.188 0.436 0 0.857-0.008 1.228-0.008h0.291c3.773 0 8.693-0.385 10.701-2.177 5.122-4.563 11.502-19.507 12.439-22.86 0.557-1.956 1.186-7.087 1.406-8.983 0.551-0.179 1.05-0.504 1.121-1.147C76.408 58.432 77.288 42.855 77.128 39.761zM74.249 60.127c-0.079 0.018-0.161 0.035-0.235 0.047l-0.759 0.117-0.084 0.763c-0.008 0.071-0.794 7.156-1.424 9.37-1.022 3.654-7.389 17.937-11.846 21.906-1.166 1.041-4.669 1.67-9.37 1.67h-0.313c-0.385 0-0.789 0.008-1.206 0.008-4.313 0-7.475-0.62-8.673-1.686-4.531-4.041-10.946-18.279-11.967-21.904-0.625-2.215-1.472-9.304-1.48-9.375l-0.09-0.76-0.757-0.111c-0.076-0.011-0.169-0.029-0.261-0.05-0.273-3.61-1.033-17.146-0.921-20.145 0.192-0.279 0.917-0.894 1.598-1.35l0.497-0.333L26.9 37.699c-0.015-0.159-1.454-16.005 6.873-25.183C37.695 8.192 43.212 6 50.171 6h0.147c6.556 0 11.828 2.098 15.667 6.234 8.474 9.131 7.369 25.324 7.357 25.487l-0.041 0.542 0.433 0.329c0.606 0.461 1.248 1.083 1.4 1.353C75.256 42.873 74.514 56.555 74.249 60.127z" fill="#dbb8d0" data-fill-palette-color="accent"></path><path d="M64.617 28.552C62.771 27.295 52 47.982 52 51.734c0 2.824 8.046 24.393 10.05 23.216C72.644 68.739 78.193 37.804 64.617 28.552zM66.155 50.731C65.68 51.077 59.874 53.049 55.718 53c-0.541-0.007 0-0.875 0.829-2 1.239-1.682 4.967-3.328 8.046-2.25C65.843 49.188 66.665 50.36 66.155 50.731z" fill="#dbb8d0" data-fill-palette-color="accent"></path><path d="M35.383 28.552c-13.579 9.252-8.03 40.188 2.565 46.398C39.953 76.127 48 54.559 48 51.734 48 47.982 37.227 27.295 35.383 28.552zM42.954 51c0.829 1.125 1.37 1.993 0.829 2-4.156 0.049-9.962-1.923-10.438-2.269-0.51-0.371 0.313-1.543 1.563-1.981C37.987 47.672 41.714 49.318 42.954 51z" fill="#dbb8d0" data-fill-palette-color="accent"></path><path d="M64.432 27.497c0.033 0 0.064 0.012 0.097 0.014-1.849-10.532-4.462-16.266-6.351-19.225-0.517-0.185-1.039-0.36-1.582-0.505 1.782 2.403 4.891 8.087 6.976 20.066C63.891 27.628 64.183 27.497 64.432 27.497z" fill="#dbb8d0" data-fill-palette-color="accent"></path><path d="M36.441 27.778c2.066-11.813 5.123-17.483 6.909-19.92-0.545 0.149-1.066 0.333-1.584 0.521-1.885 2.984-4.464 8.706-6.294 19.133 0.033-0.002 0.064-0.014 0.097-0.014C35.734 27.497 36.002 27.5 36.441 27.778z" fill="#dbb8d0" data-fill-palette-color="accent"></path></svg></g></svg></g></svg></g><defs></defs></svg><rect width="395.52" height="99.6642602971771" fill="none" stroke="none" visibility="hidden"></rect></g></svg></g></svg>